<?xml version="1.0" encoding="UTF-8"?>
<svg id="Camada_1" data-name="Camada 1" xmlns="http://www.w3.org/2000/svg" viewBox="0 0 1900 509.88">
  <path d="M278.19,438.87v60.06c0,3-2.44,5.44-5.44,5.44H5.44c-3,0-5.44-2.44-5.44-5.44V85.56c0-3,2.44-5.44,5.44-5.44h75.82c3,0,5.44,2.44,5.44,5.44v342.43c0,3,2.44,5.44,5.44,5.44h180.61c3,0,5.44,2.44,5.44,5.44ZM671.37,275.04v223.89c0,3-2.44,5.44-5.44,5.44h-36.37c-2.33,0-4.41-1.49-5.15-3.7l-12.7-41.55c-1.37-4.06-6.61-4.96-9.37-1.68-23.2,27.52-76.39,52.43-152.41,52.43-86.7,0-156.06-38.6-156.06-123.73,0-74.08,52.82-107.18,167.89-119.01l121.74-12.07c2.88-.29,5.05-2.77,4.9-5.66-3.3-62.42-25.57-87.08-104.59-87.08-72.28,0-93.87,27.91-95.27,75.24-.09,2.9-2.48,5.19-5.38,5.22l-71.13.68c-3.05.03-5.56-2.45-5.5-5.5,1.55-80.84,37.81-142.61,176.49-142.61,164.71,0,188.34,70.94,188.34,179.69ZM588.64,324.46c0-3.24-2.82-5.76-6.04-5.41l-108.25,11.95c-70.12,7.86-93.78,22.84-93.78,54.36,0,37.06,31.52,58.32,90.63,58.32,81.19,0,117.43-42.56,117.43-112.68v-6.54ZM895.73,267.93c-66.97-13.37-111.9-21.27-111.9-56.72,0-32.31,24.41-50.46,90.63-50.46s95.83,22.26,100.5,73.95c.25,2.78,2.62,4.88,5.41,4.88h68.24c3.03,0,5.52-2.48,5.44-5.52-2.33-91.01-62.9-138.72-177.23-138.72s-176.54,44.14-176.54,122.94,78.8,96.14,165.5,112.71c69.37,13.37,115.86,23.63,115.86,60.68,0,31.52-38.63,51.21-96.17,51.21-70.96,0-107.92-25.85-110.21-76.82-.13-2.88-2.54-5.13-5.42-5.13h-71.92c-3.03,0-5.52,2.49-5.45,5.52,2.33,96.35,66.19,143.4,194.57,143.4,106.39,0,177.33-48.85,177.33-122.15,0-85.88-75.66-101.64-168.65-119.79ZM1298.37,100.86h-126.94c-5.46,0-7.52-7.15-2.89-10.05l25.54-16c1.59-.99,2.55-2.74,2.55-4.61V5.44c0-3-2.44-5.44-5.44-5.44h-71.07c-3,0-5.44,2.44-5.44,5.44v91.37c0,2.4-1.57,4.51-3.87,5.21l-49.8,15.03c-2.3.69-3.87,2.81-3.87,5.21v40.95c0,3,2.44,5.44,5.44,5.44h46.66c3,0,5.44,2.44,5.44,5.44v214.42c0,94.14,54.51,126.07,183.96,119.3,2.89-.15,5.17-2.55,5.17-5.44v-56.94c0-3.07-2.54-5.55-5.61-5.44-82.59,2.94-99.17-14.45-99.17-51.47v-214.42c0-3,2.44-5.44,5.44-5.44h93.91c3,0,5.44-2.44,5.44-5.44v-56.91c0-3-2.43-5.44-5.44-5.44ZM1534.48,162.47v-61.98c0-2.88-2.26-5.29-5.14-5.44-63.72-3.43-107.53,8.94-132.62,51.03-2.37,3.97-8.27,3.42-9.8-.94l-14.3-40.64c-.77-2.18-2.82-3.63-5.13-3.63h-35.63c-3,0-5.44,2.44-5.44,5.44v392.63c0,3,2.44,5.44,5.44,5.44h73.43c3,0,5.44-2.44,5.44-5.44v-207.34c0-92.2,38.97-132.72,117.63-123.73,3.26.37,6.13-2.11,6.13-5.39ZM1900,275.04v223.89c0,3-2.44,5.44-5.44,5.44h-36.37c-2.33,0-4.41-1.49-5.15-3.7l-12.7-41.55c-1.37-4.06-6.61-4.96-9.37-1.68-23.2,27.52-76.39,52.43-152.41,52.43-86.7,0-156.06-38.6-156.06-123.73,0-74.08,52.82-107.18,167.89-119.01l121.75-12.07c2.88-.29,5.05-2.77,4.9-5.66-3.3-62.42-25.57-87.08-104.59-87.08-72.27,0-93.87,27.91-95.28,75.24-.09,2.9-2.48,5.19-5.38,5.22l-71.13.68c-3.05.03-5.56-2.45-5.5-5.5,1.55-80.84,37.81-142.61,176.49-142.61,164.72,0,188.34,70.94,188.34,179.69ZM1817.27,324.46c0-3.24-2.82-5.76-6.04-5.41l-108.25,11.95c-70.12,7.86-93.78,22.84-93.78,54.36,0,37.06,31.52,58.32,90.63,58.32,81.16,0,117.43-42.56,117.43-112.68v-6.54Z" fill="#fff" stroke-width="0"/>
</svg>